<svg xmlns="http://www.w3.org/2000/svg" width="101" height="41" viewBox="0 0 101 41">
  <path id="Subtraction_11" data-name="Subtraction 11" d="M-6967.373-1494.326h-90a5.006,5.006,0,0,1-5-5v-4.422l7.4-7.4a4.472,4.472,0,0,0,1.319-3.183,4.467,4.467,0,0,0-1.319-3.182l-7.4-7.4v-4.422a5.006,5.006,0,0,1,5-5h90a5.006,5.006,0,0,1,5,5v4.422l-7.4,7.4a4.467,4.467,0,0,0-1.319,3.182,4.472,4.472,0,0,0,1.319,3.183l7.4,7.4v4.422A5.006,5.006,0,0,1-6967.373-1494.326Z" transform="translate(7062.873 1534.826)" fill="none" stroke="#43425d" stroke-miterlimit="10" stroke-width="1"/>
</svg>
