<svg xmlns="http://www.w3.org/2000/svg" width="20" height="20" viewBox="0 0 20 20">
  <g id="Group_11" data-name="Group 11" transform="translate(0)">
    <path id="Path_2" data-name="Path 2" d="M10.79.794A10,10,0,0,0,8.778,1,9.9,9.9,0,0,0,6.9,1.581,10.06,10.06,0,0,0,1.581,6.906,9.911,9.911,0,0,0,1,8.781a10.014,10.014,0,0,0-.2,2.013A10.222,10.222,0,0,0,1.906,15.37,10.053,10.053,0,0,0,7.139,20.1a9.962,9.962,0,0,0,7.539-.1A10.066,10.066,0,0,0,20,14.682a9.9,9.9,0,0,0,.584-1.875,10.024,10.024,0,0,0,0-4.026A9.9,9.9,0,0,0,20,6.906a10.066,10.066,0,0,0-5.325-5.325A9.906,9.906,0,0,0,10.79.794Zm0,1.534a8.481,8.481,0,0,1,2,.248c-.191.055.113.778-.084.809a8.115,8.115,0,0,1-1.3.1l.045.006a8.7,8.7,0,0,0-.976-.023,4.652,4.652,0,0,0-.817.09,1.364,1.364,0,0,0-.886.478c-.453.543-.659.976-.829,1.085-.141.09-.216.09-.533.119a4.256,4.256,0,0,0-1.4.341l.074-.029a7.157,7.157,0,0,0-1.305-.715A8.424,8.424,0,0,1,10.79,2.328Zm5.666,2.186a8.522,8.522,0,0,1,1.272,1.441,8.39,8.39,0,0,1,.921,1.705l-.06-.018c.054-.173-.033.031-.2.2s-.414.373-.652.562c-.476.378-.937.7-.937.7a.766.766,0,0,0-.062.047q-.029.025-.056.053a.942.942,0,0,0-.095.122q-.02.032-.038.066t-.032.071q-.013.036-.023.074t-.017.075q-.006.038-.009.077t0,.077q0,.038.006.077t.015.075q.009.037.021.074l0,.012.635,1.737-1.26,1.432q-.026.029-.048.06t-.042.065a.766.766,0,0,0-.036.068q-.015.035-.027.072t-.023.074s0,0,0,0l-.221,1L13.651,16.5l-.545-.748L13.1,14.473q0-.038,0-.077a.769.769,0,0,0-.012-.077q-.008-.037-.02-.074a.781.781,0,0,0-.1-.207q-.022-.031-.047-.06a.764.764,0,0,0-.053-.057q-.027-.026-.057-.05a.684.684,0,0,0-.131-.083q-.034-.018-.071-.032t-.072-.024q-.037-.01-.075-.017a.77.77,0,0,0-.077-.009q-.038,0-.077,0t-.069.006l-1.219.153-.233-1.755q0-.038-.014-.075t-.023-.074a.765.765,0,0,0-.029-.072l-.009-.018-.761-1.55c.143-.186.224-.3.488-.63.419-.521.993-1.148,1.021-1.17s.039-.033.057-.051l.023-.023c-.144.153.037-.009.3-.074a8.689,8.689,0,0,1,.948-.165c.679-.086,1.317-.119,1.317-.119a.769.769,0,0,0,.077-.008q.038-.006.075-.015t.074-.023q.036-.013.071-.03a.863.863,0,0,0,.191-.131q.028-.026.053-.054t.048-.06a.809.809,0,0,0,.105-.206q.009-.029.017-.059l.427-1.761ZM3.987,10.134c.039.076.083.146.1.188a6.988,6.988,0,0,1-.1,1.334A1.28,1.28,0,0,0,4.3,12.831a2.028,2.028,0,0,0,.7.449,2.386,2.386,0,0,0,.539.164c.059.084.086.119.171.255a3.658,3.658,0,0,1,.186.341c.043.09.035.178.035.006a1.828,1.828,0,0,0,.1.59c.052.185.118.381.182.562.048.138.055.146.1.255-.038.042-.084.1-.084.1a3.256,3.256,0,0,0-1.4.915,1.484,1.484,0,0,0-.093.231,8.418,8.418,0,0,1-2.338-4.926c.126-.146.772-.538,1.009-.831.21-.26.384-.533.584-.807Z" transform="translate(-0.792 -0.794)" fill="#fff"/>
  </g>
</svg>
