<svg xmlns="http://www.w3.org/2000/svg" xmlns:xlink="http://www.w3.org/1999/xlink" width="260" height="62" viewBox="0 0 260 62">
  <defs>
    <clipPath id="clip-path">
      <rect width="260" height="62" fill="none"/>
    </clipPath>
  </defs>
  <g id="Bilettm_Logo" data-name="Bilettm Logo" clip-path="url(#clip-path)">
    <g id="_.com" data-name=".com" transform="translate(201.5 33)">
      <g id="Group_29" data-name="Group 29">
        <path id="Path_386" data-name="Path 386" d="M375.214,168.868a1.661,1.661,0,0,0-2.084,0,1.1,1.1,0,0,0-.429.919,1.219,1.219,0,0,0,.429.981,1.6,1.6,0,0,0,1.042.429,1.436,1.436,0,0,0,1.042-.429,1.219,1.219,0,0,0,.429-.981A1.3,1.3,0,0,0,375.214,168.868Z" transform="translate(-372.7 -156.503)" fill="#fff" stroke="#fff" stroke-width="1"/>
        <path id="Path_387" data-name="Path 387" d="M388.6,162.805a9.586,9.586,0,0,1-2.207.188,4.384,4.384,0,0,1-3.74-1.695,7.024,7.024,0,0,1-1.287-4.393,6.305,6.305,0,0,1,1.41-4.205,4.8,4.8,0,0,1,3.8-1.632,7.141,7.141,0,0,1,2.207.251c.552.188,1.226.439,1.962.753l.613-1.318a7.876,7.876,0,0,0-2.268-.879,10.117,10.117,0,0,0-2.391-.377,7.447,7.447,0,0,0-3.8.941,6.583,6.583,0,0,0-2.575,2.636,7.838,7.838,0,0,0-.92,3.828,8.911,8.911,0,0,0,.858,3.954,6.428,6.428,0,0,0,2.452,2.7,7.29,7.29,0,0,0,3.8.941,13.671,13.671,0,0,0,2.452-.314,7.216,7.216,0,0,0,2.268-.879l-.613-1.318C389.761,162.366,389.087,162.617,388.6,162.805Z" transform="translate(-374.072 -149.5)" fill="#fff" stroke="#fff" stroke-width="1"/>
        <path id="Path_388" data-name="Path 388" d="M411.884,151.609a6.7,6.7,0,0,0-5.15-2.009,7.446,7.446,0,0,0-3.8.942,6.436,6.436,0,0,0-2.514,2.636,8.581,8.581,0,0,0-.92,3.829,8.818,8.818,0,0,0,.8,3.892,6.148,6.148,0,0,0,6.008,3.641,7.915,7.915,0,0,0,3.924-.941,6.582,6.582,0,0,0,2.575-2.636,8.886,8.886,0,0,0-.92-9.352Zm-1.533,9.792a4.8,4.8,0,0,1-3.8,1.632,4.384,4.384,0,0,1-3.74-1.695,7.025,7.025,0,0,1-1.287-4.394,6.307,6.307,0,0,1,1.41-4.205,4.8,4.8,0,0,1,3.8-1.632,4.384,4.384,0,0,1,3.74,1.695,7.025,7.025,0,0,1,1.287,4.394A6.775,6.775,0,0,1,410.351,161.4Z" transform="translate(-379.563 -149.539)" fill="#fff" stroke="#fff" stroke-width="1"/>
        <path id="Path_389" data-name="Path 389" d="M446,150.856a3.833,3.833,0,0,0-3.249-1.256,6.529,6.529,0,0,0-2.82.754,7.729,7.729,0,0,0-2.514,1.821,3.786,3.786,0,0,0-3.985-2.575,6.529,6.529,0,0,0-2.82.754,7.729,7.729,0,0,0-2.514,1.821l-.307-2.2H426.2v14.255h1.9V154.059a9.169,9.169,0,0,1,2.514-2.072,5.251,5.251,0,0,1,2.514-.816,2.144,2.144,0,0,1,2.023.942,5.15,5.15,0,0,1,.552,2.575v9.483h1.9V153.745a7.633,7.633,0,0,1,2.391-1.821,5.176,5.176,0,0,1,2.391-.754,2.144,2.144,0,0,1,2.023.942,5.151,5.151,0,0,1,.552,2.575v9.483h1.9v-9.86A5.253,5.253,0,0,0,446,150.856Z" transform="translate(-388.86 -149.539)" fill="#fff" stroke="#fff" stroke-width="1"/>
      </g>
    </g>
    <g id="Bilettm" transform="translate(10 9)">
      <g id="Group_33" data-name="Group 33" transform="translate(0 0)">
        <g id="Group_31" data-name="Group 31" transform="translate(5.577)">
          <path id="Path_390" data-name="Path 390" d="M81.794,123.138,68,115.284l9-3.957c2.459-1.079,4.738.06,4.8,2.458Z" transform="translate(-68 -110.918)" fill="#fff"/>
        </g>
        <g id="Group_32" data-name="Group 32" transform="translate(0 6.644)">
          <path id="Path_391" data-name="Path 391" d="M91.565,140.693a3.506,3.506,0,0,1-1.739,3.075L63.918,158.895A3.479,3.479,0,0,1,58.7,155.82V125.566a3.506,3.506,0,0,1,1.739-3.075,3.32,3.32,0,0,1,3.478,0l14.213,8.3,11.695,6.826A3.506,3.506,0,0,1,91.565,140.693Z" transform="translate(-58.7 -122)" fill="#fff"/>
        </g>
      </g>
      <g id="Group_34" data-name="Group 34" transform="translate(41.863 5.418)">
        <path id="Path_392" data-name="Path 392" d="M149.63,141.282a12.721,12.721,0,0,1-1.439,6.108,10.042,10.042,0,0,1-4.138,4.134,12.886,12.886,0,0,1-6.3,1.481,9.053,9.053,0,0,1-2.939-.555,10.941,10.941,0,0,1-2.7-1.3.384.384,0,0,0-.54.123l-.6.8a.847.847,0,0,1-.72.37h-1.8a.675.675,0,0,1-.66-.679V121.045a.627.627,0,0,1,.6-.679l4.138-.37a.686.686,0,0,1,.72.679v10.057a10.047,10.047,0,0,1,4.618-1.172,12.885,12.885,0,0,1,6.3,1.481,9.563,9.563,0,0,1,4.078,4.134A12.539,12.539,0,0,1,149.63,141.282Zm-5.637,0a8.059,8.059,0,0,0-1.679-5.368,5.583,5.583,0,0,0-4.618-2.036,7.165,7.165,0,0,0-2.339.37,8.986,8.986,0,0,0-2.159,1.111v11.785a7.617,7.617,0,0,0,4.5,1.357,5.743,5.743,0,0,0,4.618-2.036A7.552,7.552,0,0,0,143.993,141.282Z" transform="translate(-127.8 -119.969)" fill="#fff"/>
        <path id="Path_393" data-name="Path 393" d="M174.09,123.526a2.909,2.909,0,0,1-.96,2.223,3.209,3.209,0,0,1-2.339.926,3.249,3.249,0,0,1-2.939-1.791c0-.062-.06-.123-.06-.185a3.191,3.191,0,0,1,3-4.2,3.309,3.309,0,0,1,2.339.926A2.659,2.659,0,0,1,174.09,123.526Zm-.48,7.41v21a.676.676,0,0,1-.66.679h-4.138a.676.676,0,0,1-.66-.679v-21a.676.676,0,0,1,.66-.679h4.138A.639.639,0,0,1,173.61,130.936Z" transform="translate(-143.744 -120.174)" fill="#fff"/>
        <path id="Path_394" data-name="Path 394" d="M187.357,120.6v31.173a.676.676,0,0,1-.66.679H182.56a.675.675,0,0,1-.66-.679V121.032a.627.627,0,0,1,.6-.679l4.138-.37A.579.579,0,0,1,187.357,120.6Z" transform="translate(-149.455 -119.956)" fill="#fff"/>
        <path id="Path_395" data-name="Path 395" d="M206.995,135.3c3.478,0,6.117,1.079,7.856,3.178a12,12,0,0,1,2.7,8.094v.839a.665.665,0,0,1-.66.659H201.537c-.18,0-.3.12-.24.3.6,3.657,3.059,5.516,7.5,5.516a11.339,11.339,0,0,0,3.358-.48,20.679,20.679,0,0,0,3-1.2.657.657,0,0,1,.9.36l1.139,2.518a.741.741,0,0,1-.24.839,16.227,16.227,0,0,1-8.216,2.218c-4.258,0-7.557-1.019-9.775-3.058a10.63,10.63,0,0,1-3.358-8.334,12.813,12.813,0,0,1,1.379-6,9.823,9.823,0,0,1,3.958-4.017A12.074,12.074,0,0,1,206.995,135.3Zm-.12,4.317a5.284,5.284,0,0,0-3.778,1.319,6.213,6.213,0,0,0-1.739,3.417.3.3,0,0,0,.3.36h10.315a.336.336,0,0,0,.3-.36,6.6,6.6,0,0,0-1.739-3.477A5.319,5.319,0,0,0,206.875,139.617Z" transform="translate(-154.939 -125.166)" fill="#fff"/>
        <path id="Path_396" data-name="Path 396" d="M244.416,132.749h3.658a.723.723,0,0,1,.6.433l1.079,2.6a.664.664,0,0,1-.6.929h-4.738a.162.162,0,0,0-.18.186v10.526a4.888,4.888,0,0,0,.84,2.91,3.02,3.02,0,0,0,2.579,1.115,6.853,6.853,0,0,0,1.859-.31.714.714,0,0,1,.84.372l1.02,2.663a.646.646,0,0,1-.36.867,7.916,7.916,0,0,1-1.439.5,8.3,8.3,0,0,1-2.339.372,9.07,9.07,0,0,1-6.177-1.92,6.96,6.96,0,0,1-2.219-5.573V137.022a.162.162,0,0,0-.18-.186h-2.4a.677.677,0,0,1-.66-.681v-2.6a.677.677,0,0,1,.66-.681h2.4a.162.162,0,0,0,.18-.186v-4.768a.72.72,0,0,1,.54-.681l4.138-.743a.672.672,0,0,1,.78.681v5.511C244.236,132.625,244.3,132.749,244.416,132.749Z" transform="translate(-170.95 -122.571)" fill="#fff"/>
        <path id="Path_397" data-name="Path 397" d="M271.076,132.749h3.6a.723.723,0,0,1,.6.433l1.08,2.6a.664.664,0,0,1-.6.929h-4.678a.262.262,0,0,0-.24.248v10.464a4.888,4.888,0,0,0,.84,2.91,3.02,3.02,0,0,0,2.579,1.115,6.854,6.854,0,0,0,1.859-.31.714.714,0,0,1,.84.372l1.02,2.663a.646.646,0,0,1-.36.867,7.916,7.916,0,0,1-1.439.5,8.3,8.3,0,0,1-2.339.372,9.069,9.069,0,0,1-6.177-1.92,6.96,6.96,0,0,1-2.219-5.573V137.083a.262.262,0,0,0-.24-.248H262.86a.677.677,0,0,1-.66-.681v-2.6a.677.677,0,0,1,.66-.681H265.2a.262.262,0,0,0,.24-.248v-4.706a.72.72,0,0,1,.54-.681l4.138-.743a.672.672,0,0,1,.78.681v5.449C270.836,132.625,270.956,132.749,271.076,132.749Z" transform="translate(-181.597 -122.571)" fill="#fff"/>
        <path id="Path_398" data-name="Path 398" d="M330.863,143.294v13.789a.665.665,0,0,1-.66.659h-4.138a.665.665,0,0,1-.66-.659v-13.01a5.669,5.669,0,0,0-.78-3.357,2.809,2.809,0,0,0-2.579-1.139,6.168,6.168,0,0,0-2.939.779,22.456,22.456,0,0,0-3.238,1.978.458.458,0,0,0-.12.3l.06.779V157.2a.665.665,0,0,1-.66.66h-4.138a.665.665,0,0,1-.66-.66v-13.01a5.669,5.669,0,0,0-.78-3.357,2.809,2.809,0,0,0-2.579-1.139c-1.679,0-3.838.959-6.417,2.938a.312.312,0,0,0-.12.24v14.389a.665.665,0,0,1-.66.66H295.66a.665.665,0,0,1-.66-.66V136.879a.665.665,0,0,1,.66-.66h2.519a.6.6,0,0,1,.6.42l.72,1.919a.219.219,0,0,0,.3.12,19.729,19.729,0,0,1,4.138-2.218,12.071,12.071,0,0,1,4.258-.9c3.059,0,5.218,1.019,6.357,3.058.06.12.18.12.3.06a21.834,21.834,0,0,1,4.2-2.278,11.813,11.813,0,0,1,4.258-.9c2.579,0,4.438.719,5.637,2.1C330.264,138.737,330.863,140.716,330.863,143.294Z" transform="translate(-194.726 -125.246)" fill="#fff"/>
      </g>
    </g>
    <path id="Line" d="M231.823,159.2H50.677a7.049,7.049,0,0,1-7.177-6.9V106.1a7.05,7.05,0,0,1,7.177-6.9H231.823A7.049,7.049,0,0,1,239,106.1V152.3A7.089,7.089,0,0,1,231.823,159.2Z" transform="translate(-42.5 -98.2)" fill="none" stroke="#fff" stroke-miterlimit="10" stroke-width="2"/>
  </g>
</svg>
