<svg xmlns="http://www.w3.org/2000/svg" width="50" height="50" viewBox="0 0 50 50">
  <path id="Shape" d="M25,50A25,25,0,0,1,7.322,7.322,25,25,0,1,1,42.677,42.678,24.838,24.838,0,0,1,25,50ZM13.779,33.624a.119.119,0,0,0-.064.219A13.91,13.91,0,0,0,35.128,22.124c0-.164,0-.34-.011-.568a9.922,9.922,0,0,0,2.4-2.5.119.119,0,0,0-.008-.142.121.121,0,0,0-.091-.043.118.118,0,0,0-.048.01,9.605,9.605,0,0,1-2.238.678A4.945,4.945,0,0,0,36.875,17.1a.122.122,0,0,0-.04-.128.119.119,0,0,0-.074-.026.121.121,0,0,0-.061.017,9.553,9.553,0,0,1-2.979,1.149A4.974,4.974,0,0,0,25.27,22.54a13.712,13.712,0,0,1-9.754-5.014.114.114,0,0,0-.088-.044h-.013a.123.123,0,0,0-.093.057,4.973,4.973,0,0,0,1.2,6.384,4.705,4.705,0,0,1-1.735-.56.112.112,0,0,0-.056-.015.116.116,0,0,0-.059.016.12.12,0,0,0-.06.1v.063A5.009,5.009,0,0,0,18.1,28.274a4.7,4.7,0,0,1-.754.061,4.855,4.855,0,0,1-.9-.084l-.023,0a.117.117,0,0,0-.112.154,4.953,4.953,0,0,0,4.311,3.434,9.564,9.564,0,0,1-5.691,1.856,9.691,9.691,0,0,1-1.143-.068h-.013Z" fill="#d43d34"/>
</svg>
