<svg xmlns="http://www.w3.org/2000/svg" width="50" height="50" viewBox="0 0 50 50">
  <path id="Shape" d="M25,50A25,25,0,0,1,7.322,7.322,25,25,0,1,1,42.677,42.677,24.837,24.837,0,0,1,25,50Zm-.438-30.92c-1.5,0-2.679,1.612-2.679,3.671A5.61,5.61,0,0,0,22.325,25L21.291,29.47l-.752,3.253A12.461,12.461,0,0,0,20.3,35.9a1.113,1.113,0,0,0,.93,1.084.985.985,0,0,0,.75-.457,11.752,11.752,0,0,0,1.358-2.972c.168-.621.968-3.865.976-3.9a3.968,3.968,0,0,0,3.395,1.768,6.707,6.707,0,0,0,5.422-2.774A11.535,11.535,0,0,0,35.2,21.7c0-3.993-3.289-8.123-8.793-8.123-6.214,0-9.928,4.5-9.928,8.86,0,2.649,1.064,4.674,2.846,5.417a.614.614,0,0,0,.237.052.472.472,0,0,0,.457-.406c.033-.127.089-.355.144-.582s.105-.428.137-.554a.7.7,0,0,0-.2-.791,4.166,4.166,0,0,1-.916-2.782,6.844,6.844,0,0,1,1.84-4.738,6.694,6.694,0,0,1,5-2.052c3.511,0,5.78,2.133,5.78,5.434,0,4.3-1.894,7.539-4.4,7.539a2.278,2.278,0,0,1-1.782-.814,2.182,2.182,0,0,1-.409-1.917c.151-.651.354-1.322.55-1.971a12.089,12.089,0,0,0,.675-3.06A1.886,1.886,0,0,0,24.561,19.08Z" fill="#fff"/>
</svg>
