<svg xmlns="http://www.w3.org/2000/svg" width="50" height="50" viewBox="0 0 50 50">
  <g id="Social_media" data-name="Social media" transform="translate(-210)">
    <path id="Shape" d="M25,50A25,25,0,0,1,7.323,7.322,25,25,0,1,1,42.677,42.678,24.84,24.84,0,0,1,25,50Zm5.1-26.026c2.361,0,2.361,2.239,2.361,3.873v7.106H37V26.938c0-3.615-.66-6.96-5.447-6.96a4.8,4.8,0,0,0-4.3,2.361h-.06v-2H22.836V34.953h4.537V27.725C27.373,25.87,27.7,23.974,30.1,23.974Zm-14.65-3.632V34.953h4.541V20.342Zm2.271-7.264a2.633,2.633,0,1,0,2.632,2.633A2.636,2.636,0,0,0,17.718,13.078Z" transform="translate(210 0)" fill="#d43d34"/>
  </g>
</svg>
