<svg xmlns="http://www.w3.org/2000/svg" width="51" height="50.999" viewBox="0 0 51 50.999">
  <path id="Subtraction_17" data-name="Subtraction 17" d="M25,50A25.006,25.006,0,0,1,15.269,1.965a25.006,25.006,0,0,1,19.462,46.07A24.843,24.843,0,0,1,25,50ZM24.727,9c-4.209,0-4.773.018-6.481.092a11.545,11.545,0,0,0-3.815.732,7.644,7.644,0,0,0-2.789,1.818A7.791,7.791,0,0,0,9.83,14.424,11.612,11.612,0,0,0,9.1,18.239c-.08,1.683-.1,2.242-.1,6.486,0,4.214.018,4.777.093,6.481a11.547,11.547,0,0,0,.731,3.815,8.05,8.05,0,0,0,4.6,4.6,11.61,11.61,0,0,0,3.815.732c1.687.074,2.247.092,6.481.092s4.794-.018,6.481-.092a11.545,11.545,0,0,0,3.815-.732,8.056,8.056,0,0,0,4.6-4.6,11.6,11.6,0,0,0,.731-3.815c.075-1.7.093-2.266.093-6.481,0-4.268-.007-4.813-.08-6.48a11.547,11.547,0,0,0-.731-3.815,7.658,7.658,0,0,0-1.819-2.789,7.777,7.777,0,0,0-2.783-1.813A11.6,11.6,0,0,0,31.214,9.1C29.526,9.019,28.967,9,24.727,9Zm.006,28.62c-4.139,0-4.689-.018-6.352-.092a8.634,8.634,0,0,1-2.918-.541,5.176,5.176,0,0,1-2.979-2.979,8.639,8.639,0,0,1-.541-2.918c-.076-1.7-.092-2.208-.092-6.352s.018-4.688.092-6.351a8.65,8.65,0,0,1,.541-2.919,4.789,4.789,0,0,1,1.179-1.805,4.857,4.857,0,0,1,1.806-1.174,8.656,8.656,0,0,1,2.918-.541c1.69-.074,2.245-.092,6.351-.092s4.669.018,6.352.092a8.65,8.65,0,0,1,2.918.541,5.188,5.188,0,0,1,2.98,2.979,8.656,8.656,0,0,1,.54,2.919c.075,1.685.093,2.239.093,6.351,0,4.262-.02,4.7-.093,6.346A8.635,8.635,0,0,1,36.988,34,5.217,5.217,0,0,1,34,36.987a8.639,8.639,0,0,1-2.918.541C29.381,37.6,28.876,37.62,24.733,37.62Zm-.006-20.972A8.078,8.078,0,1,0,32.8,24.726,8.087,8.087,0,0,0,24.727,16.648Zm8.4-2.205a1.886,1.886,0,1,0,1.886,1.886A1.888,1.888,0,0,0,33.124,14.443Zm-8.4,15.523a5.24,5.24,0,1,1,5.24-5.241A5.246,5.246,0,0,1,24.727,29.966Z" transform="translate(0.5 0.5)" fill="#fff" stroke="rgba(0,0,0,0)" stroke-miterlimit="10" stroke-width="1"/>
</svg>
